<svg xmlns="http://www.w3.org/2000/svg" xmlns:xlink="http://www.w3.org/1999/xlink" width="415" zoomAndPan="magnify" viewBox="0 0 312 94.079994" height="115" preserveAspectRatio="xMidYMid meet" version="1.2"><defs><clipPath id="cf6905472d"><path d="M 82 19 L 140 19 L 140 85.414062 L 82 85.414062 Z M 82 19 "/></clipPath></defs><g id="3e7e9b533c"><g style="fill:#ffffff;fill-opacity:1;"><g transform="translate(3.882983, 68.245367)"><path style="stroke:none" d="M 21.859375 0 L 0.359375 0 L 0.359375 -62.125 L 21.859375 -62.125 Z M 21.859375 0 "/></g></g><g style="fill:#ffffff;fill-opacity:1;"><g transform="translate(27.789743, 68.245367)"><path style="stroke:none" d="M 53.5 -24.265625 C 53.5 -22.367188 53.320312 -20.53125 52.96875 -18.75 L 20 -18.75 C 20.289062 -17.03125 21.085938 -15.738281 22.390625 -14.875 C 23.703125 -14.019531 25.125 -13.59375 26.65625 -13.59375 C 27.84375 -13.59375 28.96875 -13.816406 30.03125 -14.265625 C 31.101562 -14.710938 32.023438 -15.378906 32.796875 -16.265625 L 52.4375 -16.265625 C 50.425781 -10.097656 47.078125 -5.632812 42.390625 -2.875 C 37.710938 -0.125 32.175781 1.25 25.78125 1.25 C 20.625 1.25 16.054688 0.195312 12.078125 -1.90625 C 8.109375 -4.007812 5 -6.988281 2.75 -10.84375 C 0.5 -14.695312 -0.625 -19.171875 -0.625 -24.265625 C -0.625 -29.648438 0.585938 -34.207031 3.015625 -37.9375 C 5.453125 -41.675781 8.726562 -44.523438 12.84375 -46.484375 C 16.957031 -48.441406 21.535156 -49.421875 26.578125 -49.421875 C 29.953125 -49.421875 33.238281 -48.882812 36.4375 -47.8125 C 39.632812 -46.75 42.519531 -45.164062 45.09375 -43.0625 C 47.675781 -40.957031 49.722656 -38.347656 51.234375 -35.234375 C 52.742188 -32.128906 53.5 -28.472656 53.5 -24.265625 Z M 33.0625 -28.265625 C 32.820312 -29.859375 32.050781 -31.054688 30.75 -31.859375 C 29.445312 -32.660156 28.054688 -33.0625 26.578125 -33.0625 C 25.097656 -33.0625 23.703125 -32.660156 22.390625 -31.859375 C 21.085938 -31.054688 20.289062 -29.859375 20 -28.265625 Z M 33.0625 -28.265625 "/></g></g><g clip-rule="nonzero" clip-path="url(#cf6905472d)"><g style="fill:#ffffff;fill-opacity:1;"><g transform="translate(83.601963, 68.245367)"><path style="stroke:none" d="M 55.640625 -1.953125 C 55.640625 1.953125 54.820312 5.359375 53.1875 8.265625 C 51.5625 11.171875 49.382812 13.570312 46.65625 15.46875 C 43.9375 17.363281 40.882812 18.769531 37.5 19.6875 C 34.125 20.601562 30.691406 21.0625 27.203125 21.0625 C 23.878906 21.0625 20.644531 20.644531 17.5 19.8125 C 14.363281 18.988281 11.535156 17.773438 9.015625 16.171875 C 6.503906 14.578125 4.503906 12.59375 3.015625 10.21875 C 1.535156 7.851562 0.796875 5.128906 0.796875 2.046875 L 21.234375 2.046875 C 21.234375 3.054688 21.828125 3.882812 23.015625 4.53125 C 24.203125 5.1875 25.535156 5.515625 27.015625 5.515625 C 28.796875 5.515625 30.46875 4.953125 32.03125 3.828125 C 33.601562 2.703125 34.390625 0.773438 34.390625 -1.953125 L 34.390625 -5.0625 C 32.847656 -2.988281 31.1875 -1.625 29.40625 -0.96875 C 27.632812 -0.320312 25.445312 0 22.84375 0 C 17.507812 0 13.109375 -1.066406 9.640625 -3.203125 C 6.171875 -5.335938 3.59375 -8.222656 1.90625 -11.859375 C 0.21875 -15.503906 -0.625 -19.640625 -0.625 -24.265625 C -0.625 -28.585938 0.21875 -32.613281 1.90625 -36.34375 C 3.59375 -40.082031 6.09375 -43.101562 9.40625 -45.40625 C 12.726562 -47.71875 16.878906 -48.875 21.859375 -48.875 C 24.285156 -48.875 26.671875 -48.488281 29.015625 -47.71875 C 31.359375 -46.957031 33.359375 -45.535156 35.015625 -43.453125 L 35.46875 -48.078125 L 55.640625 -48.078125 Z M 34.21875 -24 C 34.21875 -26.363281 33.535156 -28.125 32.171875 -29.28125 C 30.804688 -30.4375 29.328125 -31.015625 27.734375 -31.015625 C 26.066406 -31.015625 24.519531 -30.40625 23.09375 -29.1875 C 21.675781 -27.976562 20.96875 -26.1875 20.96875 -23.8125 C 20.96875 -21.625 21.648438 -19.953125 23.015625 -18.796875 C 24.378906 -17.640625 25.890625 -17.0625 27.546875 -17.0625 C 29.265625 -17.0625 30.804688 -17.640625 32.171875 -18.796875 C 33.535156 -19.953125 34.21875 -21.6875 34.21875 -24 Z M 34.21875 -24 "/></g></g></g><g style="fill:#ffffff;fill-opacity:1;"><g transform="translate(141.636014, 68.245367)"><path style="stroke:none" d="M 11.734375 -48.609375 C 4.023438 -48.609375 0.171875 -51.632812 0.171875 -57.6875 C 0.171875 -60.582031 1.148438 -62.859375 3.109375 -64.515625 C 5.066406 -66.179688 7.941406 -67.015625 11.734375 -67.015625 C 15.523438 -67.015625 18.382812 -66.179688 20.3125 -64.515625 C 22.238281 -62.859375 23.203125 -60.582031 23.203125 -57.6875 C 23.203125 -51.632812 19.378906 -48.609375 11.734375 -48.609375 Z M 0.984375 0 L 22.484375 0 L 22.484375 -47.109375 L 0.984375 -47.109375 Z M 0.984375 0 "/></g></g><g style="fill:#ffffff;fill-opacity:1;"><g transform="translate(166.16488, 68.245367)"><path style="stroke:none" d="M 22.21875 -62.125 L 22.21875 -45.5 C 23.695312 -46.6875 25.503906 -47.53125 27.640625 -48.03125 C 29.773438 -48.539062 31.757812 -48.796875 33.59375 -48.796875 C 38.507812 -48.796875 42.710938 -47.664062 46.203125 -45.40625 C 49.703125 -43.15625 52.382812 -40.132812 54.25 -36.34375 C 56.125 -32.550781 57.0625 -28.316406 57.0625 -23.640625 C 57.0625 -19.429688 56.226562 -15.445312 54.5625 -11.6875 C 52.90625 -7.925781 50.414062 -4.890625 47.09375 -2.578125 C 43.78125 -0.265625 39.632812 0.890625 34.65625 0.890625 C 32.226562 0.890625 29.84375 0.476562 27.5 -0.34375 C 25.164062 -1.175781 23.140625 -2.601562 21.421875 -4.625 L 20.96875 0 L 0.890625 0 L 0.890625 -62.125 Z M 22.21875 -24 C 22.21875 -21.6875 22.898438 -19.953125 24.265625 -18.796875 C 25.628906 -17.640625 27.140625 -17.0625 28.796875 -17.0625 C 30.515625 -17.0625 32.066406 -17.664062 33.453125 -18.875 C 34.847656 -20.09375 35.546875 -21.890625 35.546875 -24.265625 C 35.546875 -26.515625 34.863281 -28.1875 33.5 -29.28125 C 32.144531 -30.375 30.632812 -30.921875 28.96875 -30.921875 C 27.3125 -30.921875 25.769531 -30.34375 24.34375 -29.1875 C 22.925781 -28.039062 22.21875 -26.3125 22.21875 -24 Z M 22.21875 -24 "/></g></g><g style="fill:#ffffff;fill-opacity:1;"><g transform="translate(224.19893, 68.245367)"><path style="stroke:none" d="M 21.859375 0 L 0.359375 0 L 0.359375 -62.125 L 21.859375 -62.125 Z M 21.859375 0 "/></g></g><g style="fill:#ffffff;fill-opacity:1;"><g transform="translate(248.105701, 68.245367)"><path style="stroke:none" d="M 53.5 -24.265625 C 53.5 -22.367188 53.320312 -20.53125 52.96875 -18.75 L 20 -18.75 C 20.289062 -17.03125 21.085938 -15.738281 22.390625 -14.875 C 23.703125 -14.019531 25.125 -13.59375 26.65625 -13.59375 C 27.84375 -13.59375 28.96875 -13.816406 30.03125 -14.265625 C 31.101562 -14.710938 32.023438 -15.378906 32.796875 -16.265625 L 52.4375 -16.265625 C 50.425781 -10.097656 47.078125 -5.632812 42.390625 -2.875 C 37.710938 -0.125 32.175781 1.25 25.78125 1.25 C 20.625 1.25 16.054688 0.195312 12.078125 -1.90625 C 8.109375 -4.007812 5 -6.988281 2.75 -10.84375 C 0.5 -14.695312 -0.625 -19.171875 -0.625 -24.265625 C -0.625 -29.648438 0.585938 -34.207031 3.015625 -37.9375 C 5.453125 -41.675781 8.726562 -44.523438 12.84375 -46.484375 C 16.957031 -48.441406 21.535156 -49.421875 26.578125 -49.421875 C 29.953125 -49.421875 33.238281 -48.882812 36.4375 -47.8125 C 39.632812 -46.75 42.519531 -45.164062 45.09375 -43.0625 C 47.675781 -40.957031 49.722656 -38.347656 51.234375 -35.234375 C 52.742188 -32.128906 53.5 -28.472656 53.5 -24.265625 Z M 33.0625 -28.265625 C 32.820312 -29.859375 32.050781 -31.054688 30.75 -31.859375 C 29.445312 -32.660156 28.054688 -33.0625 26.578125 -33.0625 C 25.097656 -33.0625 23.703125 -32.660156 22.390625 -31.859375 C 21.085938 -31.054688 20.289062 -29.859375 20 -28.265625 Z M 33.0625 -28.265625 "/></g></g></g></svg>