<svg xmlns="http://www.w3.org/2000/svg" xmlns:xlink="http://www.w3.org/1999/xlink" width="500" zoomAndPan="magnify" viewBox="0 0 375 374.999991" height="500" preserveAspectRatio="xMidYMid meet" version="1.2"><defs><clipPath id="e1ebe951ce"><path d="M 7 8.5625 L 369 8.5625 L 369 366.3125 L 7 366.3125 Z M 7 8.5625 "/></clipPath></defs><g id="71326cfaa3"><g clip-rule="nonzero" clip-path="url(#e1ebe951ce)"><path style=" stroke:none;fill-rule:nonzero;fill:#ffffff;fill-opacity:1;" d="M 345.738281 28.082031 C 351.308594 26.015625 362.125 12.648438 368.808594 8.671875 C 366.742188 9.148438 352.421875 11.058594 344.304688 11.851562 C 336.191406 12.648438 295.933594 21.558594 292.910156 22.992188 C 289.570312 25.695312 274.664062 38.109375 272.332031 38.851562 C 274.347656 37.367188 279.96875 26.863281 279.652344 26.546875 C 278.378906 26.757812 258.964844 34.605469 256.738281 35.242188 C 254.511719 35.878906 249.417969 40.972656 247.191406 43.304688 C 244.964844 45.640625 240.191406 50.414062 238.492188 50.519531 C 239.976562 49.246094 245.601562 40.335938 245.492188 38.214844 C 244.75 38.53125 211.761719 53.703125 206.03125 57.042969 C 200.304688 60.382812 186.726562 82.449219 185.773438 85.84375 C 185.242188 84.78125 186.410156 77.886719 188.105469 75.234375 C 189.804688 72.582031 192.453125 63.035156 194.046875 60.277344 C 192.878906 60.914062 177.234375 69.136719 170.867188 72.636719 C 164.503906 76.136719 160.84375 85.683594 158.296875 92.046875 C 157.660156 91.253906 160.84375 80.273438 162.117188 77.410156 C 160.683594 78.523438 133.15625 100.800781 126.316406 107.480469 C 119.472656 114.164062 111.996094 145.035156 111.039062 149.011719 C 110.402344 139.941406 118.359375 115.597656 121.382812 111.140625 C 119.472656 111.9375 97.515625 130.554688 84.46875 142.488281 C 73.011719 156.332031 77.46875 177.335938 77.785156 180.515625 C 76.195312 178.925781 71.101562 155.375 71.898438 151.875 C 69.828125 152.988281 57.257812 164.285156 54.234375 168.742188 C 51.210938 173.199219 43.097656 182.265625 38.640625 187.039062 C 38.960938 188.3125 42.460938 209.636719 42.460938 215.363281 C 41.1875 214.726562 37.050781 200.089844 35.777344 191.8125 C 24.640625 218.226562 41.824219 269.460938 41.824219 269.460938 C 41.824219 269.460938 41.855469 269.484375 41.90625 269.515625 L 34.007812 284.230469 C 34.007812 284.230469 25.769531 303.09375 22.953125 309.164062 C 20.132812 315.234375 11.679688 345.371094 10.59375 348.839844 C 9.511719 352.308594 6.042969 365.75 7.777344 366.183594 C 14.496094 362.714844 19.484375 348.1875 20.132812 346.886719 C 20.785156 345.585938 26.421875 339.082031 27.722656 336.695312 C 29.023438 334.3125 33.792969 331.925781 35.742188 329.109375 C 37.695312 326.289062 37.261719 322.386719 37.480469 318.269531 C 38.5625 311.546875 47.234375 290.300781 47.234375 290.300781 L 55.535156 275.164062 C 56.046875 275.210938 56.535156 275.226562 56.996094 275.191406 C 62.511719 274.765625 91.789062 269.460938 97.09375 266.066406 C 92.210938 266.492188 75.453125 262.671875 75.453125 262.671875 C 75.453125 262.671875 97.941406 261.613281 107.488281 259.488281 C 117.035156 257.367188 128.703125 241.882812 133.582031 235.304688 C 138.460938 228.726562 149.707031 214.882812 149.386719 213.292969 C 146.363281 215.679688 112.632812 223.160156 110.402344 222.203125 C 116.609375 217.429688 144.773438 210.746094 151.457031 208.359375 C 158.140625 205.972656 166.730469 192.449219 169.753906 186.878906 C 167.6875 187.992188 142.707031 190.0625 137.933594 190.0625 C 140.476562 187.359375 170.867188 183.539062 173.097656 182.105469 C 177.710938 177.652344 194.101562 161.582031 195.691406 159.035156 C 194.578125 159.832031 184.394531 158.082031 181.6875 157.285156 C 183.597656 155.214844 195.851562 154.898438 200.144531 153.785156 C 206.351562 150.761719 222.050781 133.683594 225.023438 127.953125 C 222.902344 129.226562 202.109375 130.5 198.289062 130.289062 C 200.835938 126.894531 228.628906 124.984375 230.324219 123.710938 C 236.476562 118.195312 270.476562 92.046875 272.703125 89.5 C 271.273438 89.660156 253.609375 92.683594 250.90625 91.570312 C 254.40625 89.34375 272.542969 87.113281 279.226562 84.570312 C 285.910156 82.023438 312.007812 59.109375 315.984375 54.8125 C 313.597656 55.929688 280.34375 63.085938 277.320312 63.246094 C 283.683594 59.585938 302.777344 53.859375 314.871094 50.835938 C 326.964844 47.8125 339.535156 34.445312 343.035156 31.425781 C 342.082031 32.539062 326.167969 35.5625 323.304688 36.355469 C 325.050781 33.492188 340.167969 30.152344 345.738281 28.082031 Z M 194.257812 100.375 C 181.105469 110.984375 126.792969 158.929688 93.695312 208.152344 C 87.757812 215.789062 56.144531 256.097656 36.734375 301.289062 L 36.574219 301.21875 C 34.375 306.320312 29.972656 320.292969 29.519531 321.019531 C 28.988281 321.867188 26.65625 325.15625 26.335938 324.941406 C 26.019531 324.730469 26.019531 323.5625 25.699219 320.59375 C 25.359375 317.09375 30.4375 304.265625 32.441406 299.378906 L 32.4375 299.378906 C 32.4375 299.378906 32.445312 299.359375 32.460938 299.328125 C 32.933594 298.171875 33.230469 297.46875 33.230469 297.46875 C 33.230469 297.46875 33.273438 297.484375 33.339844 297.507812 C 37.84375 288.242188 58.058594 246.992188 67.921875 233.183594 C 79.058594 217.589844 131.035156 151.292969 148.433594 134.320312 C 165.828125 117.347656 232.445312 60.066406 302.882812 36.304688 C 296.09375 41.394531 233.292969 68.976562 194.257812 100.375 Z M 194.257812 100.375 "/></g></g></svg>