<svg xmlns="http://www.w3.org/2000/svg" xmlns:xlink="http://www.w3.org/1999/xlink" width="250" zoomAndPan="magnify" viewBox="0 0 187.5 71.04" height="85" preserveAspectRatio="xMidYMid meet" version="1.0"><defs><g/></defs><g fill="#ffffff" fill-opacity="1"><g transform="translate(4.717092, 42.323116)"><g><path d="M 15.90625 -11.328125 L 28.1875 -11.328125 L 28.1875 -11.078125 C 27.5 -11.078125 26.910156 -10.832031 26.421875 -10.34375 C 25.941406 -9.863281 25.703125 -9.28125 25.703125 -8.59375 L 25.703125 0 C 25.210938 -0.300781 24.675781 -0.546875 24.09375 -0.734375 C 23.507812 -0.929688 22.832031 -1.03125 22.0625 -1.03125 C 21.070312 -1.03125 20.195312 -0.945312 19.4375 -0.78125 C 18.6875 -0.613281 17.9375 -0.441406 17.1875 -0.265625 C 16.445312 -0.0859375 15.609375 0 14.671875 0 C 12.878906 0 11.195312 -0.367188 9.625 -1.109375 C 8.0625 -1.859375 6.675781 -2.898438 5.46875 -4.234375 C 4.269531 -5.566406 3.332031 -7.109375 2.65625 -8.859375 C 1.988281 -10.609375 1.65625 -12.476562 1.65625 -14.46875 C 1.65625 -16.445312 1.988281 -18.3125 2.65625 -20.0625 C 3.332031 -21.8125 4.269531 -23.351562 5.46875 -24.6875 C 6.675781 -26.03125 8.0625 -27.070312 9.625 -27.8125 C 11.195312 -28.5625 12.878906 -28.9375 14.671875 -28.9375 C 16.160156 -28.9375 17.566406 -28.679688 18.890625 -28.171875 C 20.210938 -27.660156 21.390625 -27.003906 22.421875 -26.203125 C 23.453125 -25.398438 24.257812 -24.53125 24.84375 -23.59375 C 25.113281 -23.15625 25.320312 -22.703125 25.46875 -22.234375 C 25.625 -21.765625 25.703125 -21.3125 25.703125 -20.875 C 25.703125 -19.65625 25.269531 -18.613281 24.40625 -17.75 C 23.539062 -16.882812 22.5 -16.453125 21.28125 -16.453125 C 20.070312 -16.453125 19.03125 -16.882812 18.15625 -17.75 C 17.289062 -18.613281 16.859375 -19.65625 16.859375 -20.875 C 16.859375 -21.5625 16.984375 -22.144531 17.234375 -22.625 C 17.484375 -23.101562 17.765625 -23.53125 18.078125 -23.90625 C 18.398438 -24.28125 18.679688 -24.648438 18.921875 -25.015625 C 19.171875 -25.390625 19.296875 -25.828125 19.296875 -26.328125 C 19.296875 -26.984375 19.003906 -27.484375 18.421875 -27.828125 C 17.847656 -28.171875 17.195312 -28.398438 16.46875 -28.515625 C 15.738281 -28.628906 15.140625 -28.6875 14.671875 -28.6875 C 13.703125 -28.6875 12.8125 -28.046875 12 -26.765625 C 11.1875 -25.484375 10.539062 -23.765625 10.0625 -21.609375 C 9.582031 -19.460938 9.34375 -17.082031 9.34375 -14.46875 C 9.34375 -11.84375 9.582031 -9.457031 10.0625 -7.3125 C 10.539062 -5.164062 11.1875 -3.453125 12 -2.171875 C 12.8125 -0.890625 13.703125 -0.25 14.671875 -0.25 C 15.140625 -0.25 15.75 -0.300781 16.5 -0.40625 C 17.257812 -0.519531 17.90625 -0.753906 18.4375 -1.109375 L 18.4375 -8.59375 C 18.4375 -9.28125 18.191406 -9.863281 17.703125 -10.34375 C 17.222656 -10.832031 16.625 -11.078125 15.90625 -11.078125 Z M 15.90625 -11.328125 "/></g></g></g><g fill="#ffffff" fill-opacity="1"><g transform="translate(31.376956, 42.323116)"><g><path d="M 21.359375 -11.078125 C 21.554688 -9.171875 21.363281 -7.390625 20.78125 -5.734375 C 20.207031 -4.085938 19.347656 -2.734375 18.203125 -1.671875 C 17.054688 -0.609375 15.726562 0.00390625 14.21875 0.171875 C 13.28125 0.273438 12.363281 0.171875 11.46875 -0.140625 C 10.570312 -0.460938 9.722656 -0.925781 8.921875 -1.53125 L 8.921875 -0.875 C 8.921875 -0.625 8.835938 -0.414062 8.671875 -0.25 C 8.515625 -0.0820312 8.3125 0 8.0625 0 L 1.03125 0 L 1.03125 -0.25 C 1.5 -0.332031 1.898438 -0.566406 2.234375 -0.953125 C 2.566406 -1.335938 2.734375 -1.773438 2.734375 -2.265625 L 2.734375 -25.625 C 2.734375 -26.125 2.566406 -26.566406 2.234375 -26.953125 C 1.898438 -27.335938 1.5 -27.570312 1.03125 -27.65625 L 1.03125 -27.890625 L 8.09375 -28.9375 C 8.125 -28.9375 8.144531 -28.9375 8.15625 -28.9375 C 8.175781 -28.9375 8.195312 -28.9375 8.21875 -28.9375 C 8.6875 -28.9375 8.921875 -28.6875 8.921875 -28.1875 L 8.921875 -19.84375 C 9.804688 -20.3125 10.800781 -20.597656 11.90625 -20.703125 C 13.414062 -20.867188 14.859375 -20.535156 16.234375 -19.703125 C 17.617188 -18.878906 18.769531 -17.71875 19.6875 -16.21875 C 20.613281 -14.71875 21.171875 -13.003906 21.359375 -11.078125 Z M 10.328125 -1.53125 C 11.242188 -1.53125 12.070312 -1.941406 12.8125 -2.765625 C 13.550781 -3.597656 14.140625 -4.707031 14.578125 -6.09375 C 15.023438 -7.488281 15.25 -9.023438 15.25 -10.703125 C 15.25 -12.410156 15.023438 -13.953125 14.578125 -15.328125 C 14.140625 -16.710938 13.550781 -17.816406 12.8125 -18.640625 C 12.070312 -19.460938 11.242188 -19.875 10.328125 -19.875 C 9.890625 -19.875 9.421875 -19.765625 8.921875 -19.546875 L 8.921875 -1.859375 C 9.421875 -1.640625 9.890625 -1.53125 10.328125 -1.53125 Z M 10.328125 -1.53125 "/></g></g></g><g fill="#ffffff" fill-opacity="1"><g transform="translate(51.919519, 42.323116)"><g><path d="M 14.375 -2.640625 C 15.175781 -2.640625 15.941406 -2.832031 16.671875 -3.21875 C 17.398438 -3.601562 18.054688 -4.140625 18.640625 -4.828125 L 18.84375 -4.71875 C 18.019531 -3.226562 16.90625 -2.035156 15.5 -1.140625 C 14.09375 -0.242188 12.550781 0.203125 10.875 0.203125 C 9.132812 0.203125 7.554688 -0.265625 6.140625 -1.203125 C 4.722656 -2.140625 3.585938 -3.398438 2.734375 -4.984375 C 1.878906 -6.566406 1.453125 -8.320312 1.453125 -10.25 C 1.453125 -12.175781 1.878906 -13.929688 2.734375 -15.515625 C 3.585938 -17.097656 4.722656 -18.359375 6.140625 -19.296875 C 7.554688 -20.234375 9.132812 -20.703125 10.875 -20.703125 C 12.382812 -20.703125 13.738281 -20.34375 14.9375 -19.625 C 16.132812 -18.914062 17.140625 -17.945312 17.953125 -16.71875 C 18.765625 -15.488281 19.320312 -14.085938 19.625 -12.515625 L 7.640625 -12.515625 C 7.640625 -10.703125 7.941406 -9.046875 8.546875 -7.546875 C 9.160156 -6.046875 9.972656 -4.851562 10.984375 -3.96875 C 12.003906 -3.082031 13.132812 -2.640625 14.375 -2.640625 Z M 10.875 -20.453125 C 10.289062 -20.453125 9.8125 -20.238281 9.4375 -19.8125 C 9.070312 -19.382812 8.765625 -18.832031 8.515625 -18.15625 C 8.265625 -17.488281 8.082031 -16.796875 7.96875 -16.078125 C 7.863281 -15.359375 7.78125 -14.695312 7.71875 -14.09375 C 7.664062 -13.488281 7.640625 -13.046875 7.640625 -12.765625 L 14.015625 -12.765625 C 13.765625 -17.890625 12.71875 -20.453125 10.875 -20.453125 Z M 10.875 -20.453125 "/></g></g></g><g fill="#ffffff" fill-opacity="1"><g transform="translate(70.230094, 42.323116)"><g><path d="M 30.671875 -2.265625 C 30.671875 -1.773438 30.832031 -1.335938 31.15625 -0.953125 C 31.488281 -0.566406 31.890625 -0.332031 32.359375 -0.25 L 32.359375 0 L 22.765625 0 L 22.765625 -0.25 C 23.234375 -0.332031 23.632812 -0.566406 23.96875 -0.953125 C 24.300781 -1.335938 24.46875 -1.773438 24.46875 -2.265625 L 24.46875 -14.46875 C 24.46875 -15.1875 24.644531 -15.75 25 -16.15625 C 25.363281 -16.570312 25.722656 -16.960938 26.078125 -17.328125 C 26.429688 -17.703125 26.609375 -18.140625 26.609375 -18.640625 C 26.609375 -19.109375 26.335938 -19.460938 25.796875 -19.703125 C 25.265625 -19.953125 24.601562 -20.078125 23.8125 -20.078125 C 22.625 -20.078125 21.566406 -19.878906 20.640625 -19.484375 C 19.722656 -19.085938 19.140625 -18.789062 18.890625 -18.59375 C 19.492188 -17.738281 19.796875 -16.554688 19.796875 -15.046875 L 19.796875 -2.265625 C 19.796875 -1.773438 19.957031 -1.335938 20.28125 -0.953125 C 20.613281 -0.566406 21.015625 -0.332031 21.484375 -0.25 L 21.484375 0 L 11.90625 0 L 11.90625 -0.25 C 12.375 -0.332031 12.769531 -0.566406 13.09375 -0.953125 C 13.425781 -1.335938 13.59375 -1.773438 13.59375 -2.265625 L 13.59375 -14.46875 C 13.59375 -15.1875 13.769531 -15.75 14.125 -16.15625 C 14.488281 -16.570312 14.847656 -16.960938 15.203125 -17.328125 C 15.566406 -17.703125 15.75 -18.140625 15.75 -18.640625 C 15.75 -19.109375 15.484375 -19.460938 14.953125 -19.703125 C 14.429688 -19.953125 13.757812 -20.078125 12.9375 -20.078125 C 11.664062 -20.078125 10.328125 -19.765625 8.921875 -19.140625 L 8.921875 -2.265625 C 8.921875 -1.773438 9.085938 -1.335938 9.421875 -0.953125 C 9.753906 -0.566406 10.15625 -0.332031 10.625 -0.25 L 10.625 0 L 1.03125 0 L 1.03125 -0.25 C 1.5 -0.332031 1.898438 -0.566406 2.234375 -0.953125 C 2.566406 -1.335938 2.734375 -1.773438 2.734375 -2.265625 L 2.734375 -16.984375 C 2.734375 -17.503906 2.566406 -17.953125 2.234375 -18.328125 C 1.898438 -18.703125 1.5 -18.929688 1.03125 -19.015625 L 1.03125 -19.265625 L 8.09375 -20.296875 C 8.125 -20.296875 8.144531 -20.296875 8.15625 -20.296875 C 8.175781 -20.296875 8.195312 -20.296875 8.21875 -20.296875 C 8.6875 -20.296875 8.921875 -20.0625 8.921875 -19.59375 L 8.921875 -19.421875 C 9.640625 -19.785156 10.453125 -20.082031 11.359375 -20.3125 C 12.273438 -20.550781 13.203125 -20.679688 14.140625 -20.703125 C 15.078125 -20.734375 15.953125 -20.601562 16.765625 -20.3125 C 17.578125 -20.019531 18.242188 -19.515625 18.765625 -18.796875 C 19.753906 -19.460938 20.828125 -19.945312 21.984375 -20.25 C 23.140625 -20.550781 24.175781 -20.703125 25.09375 -20.703125 C 26.082031 -20.703125 26.992188 -20.519531 27.828125 -20.15625 C 28.671875 -19.800781 29.351562 -19.21875 29.875 -18.40625 C 30.40625 -17.59375 30.671875 -16.472656 30.671875 -15.046875 Z M 30.671875 -2.265625 "/></g></g></g><g fill="#ffffff" fill-opacity="1"><g transform="translate(101.271274, 42.323116)"><g><path d="M 2.734375 -2.265625 L 2.734375 -16.984375 C 2.734375 -17.503906 2.566406 -17.953125 2.234375 -18.328125 C 1.898438 -18.703125 1.5 -18.929688 1.03125 -19.015625 L 1.03125 -19.265625 L 8.09375 -20.296875 C 8.125 -20.296875 8.144531 -20.296875 8.15625 -20.296875 C 8.175781 -20.296875 8.195312 -20.296875 8.21875 -20.296875 C 8.6875 -20.296875 8.921875 -20.0625 8.921875 -19.59375 L 8.921875 -2.265625 C 8.921875 -1.773438 9.085938 -1.335938 9.421875 -0.953125 C 9.753906 -0.566406 10.15625 -0.332031 10.625 -0.25 L 10.625 0 L 1.03125 0 L 1.03125 -0.25 C 1.5 -0.332031 1.898438 -0.566406 2.234375 -0.953125 C 2.566406 -1.335938 2.734375 -1.773438 2.734375 -2.265625 Z M 9.046875 -25.703125 C 9.046875 -24.847656 8.726562 -24.101562 8.09375 -23.46875 C 7.46875 -22.84375 6.710938 -22.53125 5.828125 -22.53125 C 4.941406 -22.53125 4.1875 -22.84375 3.5625 -23.46875 C 2.945312 -24.101562 2.640625 -24.847656 2.640625 -25.703125 C 2.640625 -26.585938 2.945312 -27.347656 3.5625 -27.984375 C 4.1875 -28.617188 4.941406 -28.9375 5.828125 -28.9375 C 6.710938 -28.9375 7.46875 -28.617188 8.09375 -27.984375 C 8.726562 -27.347656 9.046875 -26.585938 9.046875 -25.703125 Z M 9.046875 -25.703125 "/></g></g></g><g fill="#ffffff" fill-opacity="1"><g transform="translate(110.571225, 42.323116)"><g><path d="M 17.03125 -5.578125 C 17.113281 -4.503906 16.796875 -3.523438 16.078125 -2.640625 C 15.359375 -1.765625 14.390625 -1.070312 13.171875 -0.5625 C 11.960938 -0.0507812 10.644531 0.203125 9.21875 0.203125 C 7.8125 0.203125 6.519531 -0.03125 5.34375 -0.5 C 4.175781 -0.96875 3.234375 -1.609375 2.515625 -2.421875 C 1.804688 -3.234375 1.453125 -4.148438 1.453125 -5.171875 C 1.453125 -6.046875 1.765625 -6.789062 2.390625 -7.40625 C 3.023438 -8.03125 3.769531 -8.34375 4.625 -8.34375 C 5.507812 -8.34375 6.269531 -8.03125 6.90625 -7.40625 C 7.539062 -6.789062 7.859375 -6.046875 7.859375 -5.171875 C 7.859375 -4.421875 7.695312 -3.847656 7.375 -3.453125 C 7.0625 -3.054688 6.738281 -2.722656 6.40625 -2.453125 C 6.070312 -2.191406 5.90625 -1.882812 5.90625 -1.53125 C 5.90625 -1.226562 6.054688 -0.9375 6.359375 -0.65625 C 6.660156 -0.382812 7.019531 -0.222656 7.4375 -0.171875 C 7.71875 -0.140625 7.976562 -0.109375 8.21875 -0.078125 C 8.46875 -0.0546875 8.800781 -0.046875 9.21875 -0.046875 C 9.957031 -0.046875 10.585938 -0.304688 11.109375 -0.828125 C 11.640625 -1.347656 11.90625 -1.984375 11.90625 -2.734375 C 11.90625 -3.421875 11.648438 -4.085938 11.140625 -4.734375 C 10.628906 -5.378906 9.976562 -6.023438 9.1875 -6.671875 C 8.40625 -7.316406 7.566406 -7.984375 6.671875 -8.671875 C 5.773438 -9.367188 4.929688 -10.082031 4.140625 -10.8125 C 3.359375 -11.539062 2.710938 -12.320312 2.203125 -13.15625 C 1.703125 -14 1.453125 -14.90625 1.453125 -15.875 C 1.453125 -16.96875 1.820312 -17.875 2.5625 -18.59375 C 3.300781 -19.3125 4.207031 -19.84375 5.28125 -20.1875 C 6.363281 -20.53125 7.414062 -20.703125 8.4375 -20.703125 C 9.425781 -20.703125 10.253906 -20.601562 10.921875 -20.40625 C 11.597656 -20.21875 12.207031 -20.039062 12.75 -19.875 C 13.289062 -19.707031 13.847656 -19.640625 14.421875 -19.671875 C 14.640625 -19.703125 14.835938 -19.757812 15.015625 -19.84375 C 15.203125 -19.925781 15.347656 -20.019531 15.453125 -20.125 L 15.65625 -20.125 L 15.65625 -13.4375 C 15.65625 -13.4375 15.632812 -13.4375 15.59375 -13.4375 C 15.5625 -13.4375 15.515625 -13.4375 15.453125 -13.4375 C 15.285156 -14.257812 15.007812 -15.179688 14.625 -16.203125 C 14.238281 -17.222656 13.664062 -18.128906 12.90625 -18.921875 C 12.15625 -19.722656 11.101562 -20.207031 9.75 -20.375 C 9.03125 -20.488281 8.410156 -20.351562 7.890625 -19.96875 C 7.367188 -19.582031 7.082031 -18.945312 7.03125 -18.0625 C 6.96875 -17.175781 7.242188 -16.359375 7.859375 -15.609375 C 8.484375 -14.867188 9.28125 -14.132812 10.25 -13.40625 C 11.21875 -12.675781 12.203125 -11.925781 13.203125 -11.15625 C 14.210938 -10.382812 15.070312 -9.546875 15.78125 -8.640625 C 16.5 -7.734375 16.914062 -6.710938 17.03125 -5.578125 Z M 17.03125 -5.578125 "/></g></g></g><g fill="#ffffff" fill-opacity="1"><g transform="translate(126.732475, 42.323116)"><g><path d="M 10.875 -20.703125 C 12.601562 -20.703125 14.175781 -20.234375 15.59375 -19.296875 C 17.019531 -18.359375 18.160156 -17.097656 19.015625 -15.515625 C 19.867188 -13.929688 20.296875 -12.175781 20.296875 -10.25 C 20.296875 -8.320312 19.867188 -6.566406 19.015625 -4.984375 C 18.160156 -3.398438 17.019531 -2.140625 15.59375 -1.203125 C 14.175781 -0.265625 12.601562 0.203125 10.875 0.203125 C 9.132812 0.203125 7.554688 -0.265625 6.140625 -1.203125 C 4.722656 -2.140625 3.585938 -3.398438 2.734375 -4.984375 C 1.878906 -6.566406 1.453125 -8.320312 1.453125 -10.25 C 1.453125 -12.175781 1.878906 -13.929688 2.734375 -15.515625 C 3.585938 -17.097656 4.722656 -18.359375 6.140625 -19.296875 C 7.554688 -20.234375 9.132812 -20.703125 10.875 -20.703125 Z M 10.875 -0.046875 C 12.988281 -0.046875 14.046875 -3.445312 14.046875 -10.25 C 14.046875 -17.050781 12.988281 -20.453125 10.875 -20.453125 C 8.71875 -20.453125 7.640625 -17.050781 7.640625 -10.25 C 7.640625 -3.445312 8.71875 -0.046875 10.875 -0.046875 Z M 10.875 -0.046875 "/></g></g></g><g fill="#ffffff" fill-opacity="1"><g transform="translate(146.117714, 42.323116)"><g><path d="M 8.921875 -28.1875 L 8.921875 -2.265625 C 8.921875 -1.773438 9.085938 -1.335938 9.421875 -0.953125 C 9.753906 -0.566406 10.15625 -0.332031 10.625 -0.25 L 10.625 0 L 1.03125 0 L 1.03125 -0.25 C 1.5 -0.332031 1.898438 -0.566406 2.234375 -0.953125 C 2.566406 -1.335938 2.734375 -1.773438 2.734375 -2.265625 L 2.734375 -25.625 C 2.734375 -26.125 2.566406 -26.566406 2.234375 -26.953125 C 1.898438 -27.335938 1.5 -27.570312 1.03125 -27.65625 L 1.03125 -27.890625 L 8.09375 -28.9375 C 8.125 -28.9375 8.144531 -28.9375 8.15625 -28.9375 C 8.175781 -28.9375 8.195312 -28.9375 8.21875 -28.9375 C 8.6875 -28.9375 8.921875 -28.6875 8.921875 -28.1875 Z M 8.921875 -28.1875 "/></g></g></g><g fill="#ffffff" fill-opacity="1"><g transform="translate(155.417672, 42.323116)"><g><path d="M 18.4375 -3.09375 C 18.4375 -2.601562 18.597656 -2.164062 18.921875 -1.78125 C 19.253906 -1.394531 19.65625 -1.160156 20.125 -1.078125 L 20.125 -0.828125 L 13.015625 0.203125 C 13.015625 0.203125 13.007812 0.203125 13 0.203125 C 12.988281 0.203125 12.96875 0.203125 12.9375 0.203125 C 12.738281 0.203125 12.5625 0.128906 12.40625 -0.015625 C 12.257812 -0.171875 12.1875 -0.34375 12.1875 -0.53125 L 12.1875 -1.578125 C 11.695312 -1.210938 11.03125 -0.820312 10.1875 -0.40625 C 9.34375 0 8.34375 0.203125 7.1875 0.203125 C 5.894531 0.203125 4.722656 -0.140625 3.671875 -0.828125 C 2.628906 -1.515625 1.957031 -2.4375 1.65625 -3.59375 C 1.320312 -4.78125 1.441406 -5.9375 2.015625 -7.0625 C 2.597656 -8.195312 3.457031 -9.109375 4.59375 -9.796875 C 5.300781 -10.234375 6.207031 -10.648438 7.3125 -11.046875 C 8.414062 -11.453125 9.570312 -11.851562 10.78125 -12.25 C 12 -12.65625 13.132812 -13.070312 14.1875 -13.5 C 15.25 -13.925781 16.117188 -14.390625 16.796875 -14.890625 C 17.472656 -15.398438 17.8125 -15.972656 17.8125 -16.609375 C 17.8125 -17.160156 17.566406 -17.710938 17.078125 -18.265625 C 16.597656 -18.816406 16.03125 -19.257812 15.375 -19.59375 C 14.570312 -19.976562 13.6875 -20.238281 12.71875 -20.375 C 11.757812 -20.507812 10.769531 -20.492188 9.75 -20.328125 C 8.175781 -20.109375 7.390625 -19.585938 7.390625 -18.765625 C 7.390625 -18.265625 7.539062 -17.832031 7.84375 -17.46875 C 8.15625 -17.113281 8.453125 -16.738281 8.734375 -16.34375 C 9.023438 -15.945312 9.171875 -15.429688 9.171875 -14.796875 C 9.171875 -13.910156 8.851562 -13.15625 8.21875 -12.53125 C 7.59375 -11.914062 6.835938 -11.609375 5.953125 -11.609375 C 5.066406 -11.609375 4.3125 -11.914062 3.6875 -12.53125 C 3.070312 -13.15625 2.765625 -13.910156 2.765625 -14.796875 C 2.765625 -15.867188 3.132812 -16.8125 3.875 -17.625 C 4.625 -18.4375 5.539062 -19.097656 6.625 -19.609375 C 7.71875 -20.117188 8.75 -20.441406 9.71875 -20.578125 C 11.914062 -20.910156 13.84375 -20.648438 15.5 -19.796875 C 16.300781 -19.410156 16.988281 -18.863281 17.5625 -18.15625 C 18.144531 -17.457031 18.4375 -16.597656 18.4375 -15.578125 Z M 12.1875 -1.859375 L 12.1875 -12.484375 C 11.632812 -12.234375 11.019531 -11.894531 10.34375 -11.46875 C 9.675781 -11.039062 9.09375 -10.460938 8.59375 -9.734375 C 8.101562 -9.003906 7.816406 -8.0625 7.734375 -6.90625 C 7.671875 -5.90625 7.75 -5.023438 7.96875 -4.265625 C 8.195312 -3.515625 8.53125 -2.90625 8.96875 -2.4375 C 9.4375 -1.9375 9.976562 -1.628906 10.59375 -1.515625 C 11.21875 -1.410156 11.75 -1.523438 12.1875 -1.859375 Z M 12.1875 -1.859375 "/></g></g></g><g fill="#ffffff" fill-opacity="1"><g transform="translate(174.22425, 42.323116)"><g><path d="M 4.015625 0.203125 C 3.296875 0.203125 2.6875 -0.0390625 2.1875 -0.53125 C 1.695312 -1.03125 1.453125 -1.640625 1.453125 -2.359375 C 1.453125 -3.078125 1.695312 -3.6875 2.1875 -4.1875 C 2.6875 -4.695312 3.296875 -4.953125 4.015625 -4.953125 C 4.722656 -4.953125 5.332031 -4.695312 5.84375 -4.1875 C 6.351562 -3.6875 6.609375 -3.078125 6.609375 -2.359375 C 6.609375 -1.640625 6.351562 -1.03125 5.84375 -0.53125 C 5.332031 -0.0390625 4.722656 0.203125 4.015625 0.203125 Z M 4.015625 0.203125 "/></g></g></g><g fill="#ffffff" fill-opacity="1"><g transform="translate(12.657864, 51.375269)"><g><path d="M 2.5625 0.078125 C 2.113281 0.078125 1.710938 -0.015625 1.359375 -0.203125 C 1.015625 -0.398438 0.738281 -0.664062 0.53125 -1 C 0.332031 -1.332031 0.234375 -1.707031 0.234375 -2.125 C 0.234375 -2.539062 0.332031 -2.914062 0.53125 -3.25 C 0.738281 -3.582031 1.015625 -3.84375 1.359375 -4.03125 C 1.710938 -4.21875 2.113281 -4.3125 2.5625 -4.3125 C 3 -4.3125 3.394531 -4.21875 3.75 -4.03125 C 4.101562 -3.84375 4.378906 -3.582031 4.578125 -3.25 C 4.773438 -2.914062 4.875 -2.539062 4.875 -2.125 C 4.875 -1.707031 4.773438 -1.332031 4.578125 -1 C 4.378906 -0.664062 4.101562 -0.398438 3.75 -0.203125 C 3.394531 -0.015625 3 0.078125 2.5625 0.078125 Z M 2.5625 -0.765625 C 2.8125 -0.765625 3.035156 -0.820312 3.234375 -0.9375 C 3.441406 -1.050781 3.601562 -1.210938 3.71875 -1.421875 C 3.832031 -1.628906 3.890625 -1.863281 3.890625 -2.125 C 3.890625 -2.382812 3.832031 -2.617188 3.71875 -2.828125 C 3.601562 -3.035156 3.441406 -3.195312 3.234375 -3.3125 C 3.035156 -3.425781 2.8125 -3.484375 2.5625 -3.484375 C 2.3125 -3.484375 2.082031 -3.425781 1.875 -3.3125 C 1.675781 -3.195312 1.519531 -3.035156 1.40625 -2.828125 C 1.289062 -2.617188 1.234375 -2.382812 1.234375 -2.125 C 1.234375 -1.863281 1.289062 -1.628906 1.40625 -1.421875 C 1.519531 -1.210938 1.675781 -1.050781 1.875 -0.9375 C 2.082031 -0.820312 2.3125 -0.765625 2.5625 -0.765625 Z M 2.5625 -0.765625 "/></g></g></g><g fill="#ffffff" fill-opacity="1"><g transform="translate(20.079268, 51.375269)"><g><path d="M 2.546875 -1.5 L 2.546875 0 L 1.5625 0 L 1.5625 -1.515625 L -0.078125 -4.25 L 0.953125 -4.25 L 2.09375 -2.359375 L 3.21875 -4.25 L 4.1875 -4.25 Z M 2.546875 -1.5 "/></g></g></g><g fill="#ffffff" fill-opacity="1"><g transform="translate(26.484084, 51.375269)"><g><path d="M 3.796875 -0.78125 L 3.796875 0 L 0.5 0 L 0.5 -4.25 L 3.703125 -4.25 L 3.703125 -3.453125 L 1.484375 -3.453125 L 1.484375 -2.53125 L 3.453125 -2.53125 L 3.453125 -1.765625 L 1.484375 -1.765625 L 1.484375 -0.78125 Z M 3.796875 -0.78125 "/></g></g></g><g fill="#ffffff" fill-opacity="1"><g transform="translate(32.858641, 51.375269)"><g><path d="M 4.390625 -4.25 L 4.390625 0 L 3.59375 0 L 1.46875 -2.578125 L 1.46875 0 L 0.5 0 L 0.5 -4.25 L 1.3125 -4.25 L 3.421875 -1.671875 L 3.421875 -4.25 Z M 4.390625 -4.25 "/></g></g></g><g fill="#ffffff" fill-opacity="1"><g transform="translate(40.062208, 51.375269)"><g><path d="M 0.5 -4.25 L 1.484375 -4.25 L 1.484375 0 L 0.5 0 Z M 0.5 -4.25 "/></g></g></g><g fill="#ffffff" fill-opacity="1"><g transform="translate(44.361227, 51.375269)"><g><path d="M 2.546875 -1.5 L 2.546875 0 L 1.5625 0 L 1.5625 -1.515625 L -0.078125 -4.25 L 0.953125 -4.25 L 2.09375 -2.359375 L 3.21875 -4.25 L 4.1875 -4.25 Z M 2.546875 -1.5 "/></g></g></g><g fill="#ffffff" fill-opacity="1"><g transform="translate(50.766042, 51.375269)"><g><path d="M 0.5 -4.25 L 1.484375 -4.25 L 1.484375 0 L 0.5 0 Z M 0.5 -4.25 "/></g></g></g></svg>