<svg xmlns="http://www.w3.org/2000/svg" xmlns:xlink="http://www.w3.org/1999/xlink" width="250" zoomAndPan="magnify" viewBox="0 0 187.5 63.749997" height="85" preserveAspectRatio="xMidYMid meet" version="1.0"><defs><g/></defs><g fill="#171716" fill-opacity="1"><g transform="translate(3.866434, 42.727489)"><g><path d="M 16.0625 -11.4375 L 28.46875 -11.4375 L 28.46875 -11.1875 C 27.769531 -11.1875 27.175781 -10.941406 26.6875 -10.453125 C 26.195312 -9.960938 25.953125 -9.375 25.953125 -8.6875 L 25.953125 0 C 25.453125 -0.300781 24.910156 -0.550781 24.328125 -0.75 C 23.742188 -0.945312 23.0625 -1.046875 22.28125 -1.046875 C 21.28125 -1.046875 20.394531 -0.960938 19.625 -0.796875 C 18.863281 -0.628906 18.109375 -0.453125 17.359375 -0.265625 C 16.609375 -0.0859375 15.757812 0 14.8125 0 C 13.007812 0 11.3125 -0.375 9.71875 -1.125 C 8.132812 -1.875 6.738281 -2.921875 5.53125 -4.265625 C 4.320312 -5.617188 3.375 -7.179688 2.6875 -8.953125 C 2.007812 -10.722656 1.671875 -12.609375 1.671875 -14.609375 C 1.671875 -16.609375 2.007812 -18.488281 2.6875 -20.25 C 3.375 -22.019531 4.320312 -23.578125 5.53125 -24.921875 C 6.738281 -26.273438 8.132812 -27.328125 9.71875 -28.078125 C 11.3125 -28.835938 13.007812 -29.21875 14.8125 -29.21875 C 16.3125 -29.21875 17.726562 -28.957031 19.0625 -28.4375 C 20.40625 -27.925781 21.597656 -27.265625 22.640625 -26.453125 C 23.679688 -25.648438 24.492188 -24.773438 25.078125 -23.828125 C 25.359375 -23.378906 25.570312 -22.921875 25.71875 -22.453125 C 25.875 -21.984375 25.953125 -21.523438 25.953125 -21.078125 C 25.953125 -19.847656 25.515625 -18.796875 24.640625 -17.921875 C 23.765625 -17.046875 22.71875 -16.609375 21.5 -16.609375 C 20.269531 -16.609375 19.21875 -17.046875 18.34375 -17.921875 C 17.46875 -18.796875 17.03125 -19.847656 17.03125 -21.078125 C 17.03125 -21.773438 17.15625 -22.363281 17.40625 -22.84375 C 17.65625 -23.332031 17.9375 -23.765625 18.25 -24.140625 C 18.570312 -24.515625 18.859375 -24.890625 19.109375 -25.265625 C 19.359375 -25.640625 19.484375 -26.078125 19.484375 -26.578125 C 19.484375 -27.253906 19.191406 -27.765625 18.609375 -28.109375 C 18.023438 -28.453125 17.363281 -28.679688 16.625 -28.796875 C 15.894531 -28.910156 15.289062 -28.96875 14.8125 -28.96875 C 13.84375 -28.96875 12.945312 -28.316406 12.125 -27.015625 C 11.300781 -25.722656 10.644531 -23.992188 10.15625 -21.828125 C 9.675781 -19.660156 9.4375 -17.253906 9.4375 -14.609375 C 9.4375 -11.960938 9.675781 -9.550781 10.15625 -7.375 C 10.644531 -5.207031 11.300781 -3.476562 12.125 -2.1875 C 12.945312 -0.894531 13.84375 -0.25 14.8125 -0.25 C 15.289062 -0.25 15.910156 -0.300781 16.671875 -0.40625 C 17.441406 -0.519531 18.085938 -0.757812 18.609375 -1.125 L 18.609375 -8.6875 C 18.609375 -9.375 18.363281 -9.960938 17.875 -10.453125 C 17.394531 -10.941406 16.789062 -11.1875 16.0625 -11.1875 Z M 16.0625 -11.4375 "/></g></g></g><g fill="#171716" fill-opacity="1"><g transform="translate(30.781017, 42.727489)"><g><path d="M 21.578125 -11.1875 C 21.773438 -9.269531 21.578125 -7.472656 20.984375 -5.796875 C 20.398438 -4.128906 19.53125 -2.757812 18.375 -1.6875 C 17.226562 -0.613281 15.890625 0.00390625 14.359375 0.171875 C 13.410156 0.273438 12.484375 0.171875 11.578125 -0.140625 C 10.671875 -0.460938 9.816406 -0.929688 9.015625 -1.546875 L 9.015625 -0.875 C 9.015625 -0.625 8.929688 -0.414062 8.765625 -0.25 C 8.597656 -0.0820312 8.390625 0 8.140625 0 L 1.046875 0 L 1.046875 -0.25 C 1.515625 -0.332031 1.914062 -0.566406 2.25 -0.953125 C 2.582031 -1.347656 2.75 -1.796875 2.75 -2.296875 L 2.75 -25.875 C 2.75 -26.375 2.582031 -26.816406 2.25 -27.203125 C 1.914062 -27.597656 1.515625 -27.835938 1.046875 -27.921875 L 1.046875 -28.171875 L 8.1875 -29.21875 C 8.207031 -29.21875 8.222656 -29.21875 8.234375 -29.21875 C 8.253906 -29.21875 8.28125 -29.21875 8.3125 -29.21875 C 8.78125 -29.21875 9.015625 -28.96875 9.015625 -28.46875 L 9.015625 -20.03125 C 9.898438 -20.5 10.898438 -20.789062 12.015625 -20.90625 C 13.546875 -21.070312 15.003906 -20.738281 16.390625 -19.90625 C 17.785156 -19.070312 18.945312 -17.894531 19.875 -16.375 C 20.8125 -14.863281 21.378906 -13.132812 21.578125 -11.1875 Z M 10.4375 -1.546875 C 11.351562 -1.546875 12.1875 -1.960938 12.9375 -2.796875 C 13.6875 -3.628906 14.285156 -4.75 14.734375 -6.15625 C 15.179688 -7.5625 15.40625 -9.113281 15.40625 -10.8125 C 15.40625 -12.53125 15.179688 -14.082031 14.734375 -15.46875 C 14.285156 -16.863281 13.6875 -17.976562 12.9375 -18.8125 C 12.1875 -19.65625 11.351562 -20.078125 10.4375 -20.078125 C 9.988281 -20.078125 9.515625 -19.960938 9.015625 -19.734375 L 9.015625 -1.875 C 9.515625 -1.65625 9.988281 -1.546875 10.4375 -1.546875 Z M 10.4375 -1.546875 "/></g></g></g><g fill="#171716" fill-opacity="1"><g transform="translate(51.519853, 42.727489)"><g><path d="M 14.53125 -2.671875 C 15.332031 -2.671875 16.101562 -2.863281 16.84375 -3.25 C 17.582031 -3.644531 18.242188 -4.191406 18.828125 -4.890625 L 19.03125 -4.75 C 18.195312 -3.25 17.066406 -2.046875 15.640625 -1.140625 C 14.222656 -0.242188 12.664062 0.203125 10.96875 0.203125 C 9.21875 0.203125 7.625 -0.265625 6.1875 -1.203125 C 4.757812 -2.148438 3.613281 -3.421875 2.75 -5.015625 C 1.882812 -6.617188 1.453125 -8.394531 1.453125 -10.34375 C 1.453125 -12.289062 1.882812 -14.066406 2.75 -15.671875 C 3.613281 -17.273438 4.757812 -18.546875 6.1875 -19.484375 C 7.625 -20.429688 9.21875 -20.90625 10.96875 -20.90625 C 12.5 -20.90625 13.867188 -20.539062 15.078125 -19.8125 C 16.296875 -19.09375 17.3125 -18.113281 18.125 -16.875 C 18.945312 -15.644531 19.515625 -14.234375 19.828125 -12.640625 L 7.71875 -12.640625 C 7.71875 -10.804688 8.023438 -9.128906 8.640625 -7.609375 C 9.253906 -6.097656 10.070312 -4.894531 11.09375 -4 C 12.125 -3.113281 13.269531 -2.671875 14.53125 -2.671875 Z M 10.96875 -20.65625 C 10.382812 -20.65625 9.90625 -20.4375 9.53125 -20 C 9.15625 -19.570312 8.84375 -19.015625 8.59375 -18.328125 C 8.34375 -17.648438 8.160156 -16.953125 8.046875 -16.234375 C 7.941406 -15.515625 7.859375 -14.847656 7.796875 -14.234375 C 7.742188 -13.617188 7.71875 -13.171875 7.71875 -12.890625 L 14.140625 -12.890625 C 13.890625 -18.066406 12.832031 -20.65625 10.96875 -20.65625 Z M 10.96875 -20.65625 "/></g></g></g><g fill="#171716" fill-opacity="1"><g transform="translate(70.005375, 42.727489)"><g><path d="M 30.96875 -2.296875 C 30.96875 -1.796875 31.132812 -1.347656 31.46875 -0.953125 C 31.800781 -0.566406 32.203125 -0.332031 32.671875 -0.25 L 32.671875 0 L 23 0 L 23 -0.25 C 23.46875 -0.332031 23.867188 -0.566406 24.203125 -0.953125 C 24.535156 -1.347656 24.703125 -1.796875 24.703125 -2.296875 L 24.703125 -14.609375 C 24.703125 -15.328125 24.882812 -15.894531 25.25 -16.3125 C 25.613281 -16.726562 25.972656 -17.125 26.328125 -17.5 C 26.691406 -17.882812 26.875 -18.328125 26.875 -18.828125 C 26.875 -19.296875 26.601562 -19.65625 26.0625 -19.90625 C 25.519531 -20.15625 24.84375 -20.28125 24.03125 -20.28125 C 22.84375 -20.28125 21.78125 -20.078125 20.84375 -19.671875 C 19.914062 -19.273438 19.328125 -18.976562 19.078125 -18.78125 C 19.679688 -17.914062 19.984375 -16.71875 19.984375 -15.1875 L 19.984375 -2.296875 C 19.984375 -1.796875 20.148438 -1.347656 20.484375 -0.953125 C 20.828125 -0.566406 21.234375 -0.332031 21.703125 -0.25 L 21.703125 0 L 12.015625 0 L 12.015625 -0.25 C 12.492188 -0.332031 12.898438 -0.566406 13.234375 -0.953125 C 13.566406 -1.347656 13.734375 -1.796875 13.734375 -2.296875 L 13.734375 -14.609375 C 13.734375 -15.328125 13.910156 -15.894531 14.265625 -16.3125 C 14.628906 -16.726562 14.992188 -17.125 15.359375 -17.5 C 15.722656 -17.882812 15.90625 -18.328125 15.90625 -18.828125 C 15.90625 -19.296875 15.640625 -19.65625 15.109375 -19.90625 C 14.578125 -20.15625 13.894531 -20.28125 13.0625 -20.28125 C 11.78125 -20.28125 10.429688 -19.960938 9.015625 -19.328125 L 9.015625 -2.296875 C 9.015625 -1.796875 9.179688 -1.347656 9.515625 -0.953125 C 9.847656 -0.566406 10.25 -0.332031 10.71875 -0.25 L 10.71875 0 L 1.046875 0 L 1.046875 -0.25 C 1.515625 -0.332031 1.914062 -0.566406 2.25 -0.953125 C 2.582031 -1.347656 2.75 -1.796875 2.75 -2.296875 L 2.75 -17.15625 C 2.75 -17.6875 2.582031 -18.140625 2.25 -18.515625 C 1.914062 -18.890625 1.515625 -19.117188 1.046875 -19.203125 L 1.046875 -19.453125 L 8.1875 -20.484375 C 8.207031 -20.484375 8.222656 -20.484375 8.234375 -20.484375 C 8.253906 -20.484375 8.28125 -20.484375 8.3125 -20.484375 C 8.78125 -20.484375 9.015625 -20.25 9.015625 -19.78125 L 9.015625 -19.609375 C 9.734375 -19.972656 10.550781 -20.273438 11.46875 -20.515625 C 12.394531 -20.753906 13.328125 -20.882812 14.265625 -20.90625 C 15.210938 -20.9375 16.097656 -20.804688 16.921875 -20.515625 C 17.742188 -20.222656 18.421875 -19.710938 18.953125 -18.984375 C 19.953125 -19.648438 21.035156 -20.132812 22.203125 -20.4375 C 23.367188 -20.75 24.410156 -20.90625 25.328125 -20.90625 C 26.328125 -20.90625 27.25 -20.722656 28.09375 -20.359375 C 28.945312 -20.003906 29.640625 -19.414062 30.171875 -18.59375 C 30.703125 -17.769531 30.96875 -16.632812 30.96875 -15.1875 Z M 30.96875 -2.296875 "/></g></g></g><g fill="#171716" fill-opacity="1"><g transform="translate(101.343135, 42.727489)"><g><path d="M 2.75 -2.296875 L 2.75 -17.15625 C 2.75 -17.6875 2.582031 -18.140625 2.25 -18.515625 C 1.914062 -18.890625 1.515625 -19.117188 1.046875 -19.203125 L 1.046875 -19.453125 L 8.1875 -20.484375 C 8.207031 -20.484375 8.222656 -20.484375 8.234375 -20.484375 C 8.253906 -20.484375 8.28125 -20.484375 8.3125 -20.484375 C 8.78125 -20.484375 9.015625 -20.25 9.015625 -19.78125 L 9.015625 -2.296875 C 9.015625 -1.796875 9.179688 -1.347656 9.515625 -0.953125 C 9.847656 -0.566406 10.25 -0.332031 10.71875 -0.25 L 10.71875 0 L 1.046875 0 L 1.046875 -0.25 C 1.515625 -0.332031 1.914062 -0.566406 2.25 -0.953125 C 2.582031 -1.347656 2.75 -1.796875 2.75 -2.296875 Z M 9.140625 -25.953125 C 9.140625 -25.097656 8.816406 -24.347656 8.171875 -23.703125 C 7.535156 -23.066406 6.773438 -22.75 5.890625 -22.75 C 4.992188 -22.75 4.234375 -23.066406 3.609375 -23.703125 C 2.984375 -24.347656 2.671875 -25.097656 2.671875 -25.953125 C 2.671875 -26.847656 2.984375 -27.613281 3.609375 -28.25 C 4.234375 -28.894531 4.992188 -29.21875 5.890625 -29.21875 C 6.773438 -29.21875 7.535156 -28.894531 8.171875 -28.25 C 8.816406 -27.613281 9.140625 -26.847656 9.140625 -25.953125 Z M 9.140625 -25.953125 "/></g></g></g><g fill="#171716" fill-opacity="1"><g transform="translate(110.731942, 42.727489)"><g><path d="M 17.1875 -5.640625 C 17.269531 -4.546875 16.953125 -3.550781 16.234375 -2.65625 C 15.515625 -1.769531 14.539062 -1.070312 13.3125 -0.5625 C 12.09375 -0.0507812 10.757812 0.203125 9.3125 0.203125 C 7.882812 0.203125 6.578125 -0.03125 5.390625 -0.5 C 4.210938 -0.96875 3.257812 -1.613281 2.53125 -2.4375 C 1.8125 -3.257812 1.453125 -4.1875 1.453125 -5.21875 C 1.453125 -6.101562 1.769531 -6.859375 2.40625 -7.484375 C 3.050781 -8.117188 3.804688 -8.4375 4.671875 -8.4375 C 5.566406 -8.4375 6.332031 -8.117188 6.96875 -7.484375 C 7.601562 -6.859375 7.921875 -6.101562 7.921875 -5.21875 C 7.921875 -4.46875 7.757812 -3.890625 7.4375 -3.484375 C 7.125 -3.078125 6.800781 -2.742188 6.46875 -2.484375 C 6.132812 -2.222656 5.96875 -1.910156 5.96875 -1.546875 C 5.96875 -1.234375 6.117188 -0.9375 6.421875 -0.65625 C 6.734375 -0.382812 7.097656 -0.222656 7.515625 -0.171875 C 7.785156 -0.140625 8.046875 -0.109375 8.296875 -0.078125 C 8.554688 -0.0546875 8.894531 -0.046875 9.3125 -0.046875 C 10.0625 -0.046875 10.695312 -0.304688 11.21875 -0.828125 C 11.75 -1.359375 12.015625 -2 12.015625 -2.75 C 12.015625 -3.445312 11.753906 -4.125 11.234375 -4.78125 C 10.722656 -5.4375 10.070312 -6.085938 9.28125 -6.734375 C 8.488281 -7.390625 7.640625 -8.066406 6.734375 -8.765625 C 5.835938 -9.460938 4.988281 -10.175781 4.1875 -10.90625 C 3.394531 -11.644531 2.738281 -12.4375 2.21875 -13.28125 C 1.707031 -14.132812 1.453125 -15.050781 1.453125 -16.03125 C 1.453125 -17.144531 1.828125 -18.0625 2.578125 -18.78125 C 3.335938 -19.5 4.257812 -20.03125 5.34375 -20.375 C 6.425781 -20.726562 7.484375 -20.90625 8.515625 -20.90625 C 9.515625 -20.90625 10.351562 -20.804688 11.03125 -20.609375 C 11.71875 -20.421875 12.332031 -20.242188 12.875 -20.078125 C 13.414062 -19.910156 13.976562 -19.835938 14.5625 -19.859375 C 14.789062 -19.890625 14.992188 -19.945312 15.171875 -20.03125 C 15.347656 -20.113281 15.492188 -20.210938 15.609375 -20.328125 L 15.8125 -20.328125 L 15.8125 -13.5625 C 15.8125 -13.5625 15.789062 -13.5625 15.75 -13.5625 C 15.707031 -13.5625 15.660156 -13.5625 15.609375 -13.5625 C 15.441406 -14.394531 15.160156 -15.328125 14.765625 -16.359375 C 14.378906 -17.390625 13.800781 -18.304688 13.03125 -19.109375 C 12.269531 -19.921875 11.207031 -20.410156 9.84375 -20.578125 C 9.125 -20.679688 8.5 -20.539062 7.96875 -20.15625 C 7.4375 -19.769531 7.144531 -19.128906 7.09375 -18.234375 C 7.039062 -17.347656 7.328125 -16.53125 7.953125 -15.78125 C 8.578125 -15.03125 9.375 -14.285156 10.34375 -13.546875 C 11.320312 -12.804688 12.316406 -12.046875 13.328125 -11.265625 C 14.347656 -10.484375 15.21875 -9.632812 15.9375 -8.71875 C 16.664062 -7.800781 17.082031 -6.773438 17.1875 -5.640625 Z M 17.1875 -5.640625 "/></g></g></g><g fill="#171716" fill-opacity="1"><g transform="translate(127.047604, 42.727489)"><g><path d="M 10.96875 -20.90625 C 12.726562 -20.90625 14.320312 -20.429688 15.75 -19.484375 C 17.1875 -18.546875 18.332031 -17.273438 19.1875 -15.671875 C 20.050781 -14.066406 20.484375 -12.289062 20.484375 -10.34375 C 20.484375 -8.394531 20.050781 -6.617188 19.1875 -5.015625 C 18.332031 -3.421875 17.1875 -2.148438 15.75 -1.203125 C 14.320312 -0.265625 12.726562 0.203125 10.96875 0.203125 C 9.21875 0.203125 7.625 -0.265625 6.1875 -1.203125 C 4.757812 -2.148438 3.613281 -3.421875 2.75 -5.015625 C 1.882812 -6.617188 1.453125 -8.394531 1.453125 -10.34375 C 1.453125 -12.289062 1.882812 -14.066406 2.75 -15.671875 C 3.613281 -17.273438 4.757812 -18.546875 6.1875 -19.484375 C 7.625 -20.429688 9.21875 -20.90625 10.96875 -20.90625 Z M 10.96875 -0.046875 C 13.113281 -0.046875 14.1875 -3.476562 14.1875 -10.34375 C 14.1875 -17.21875 13.113281 -20.65625 10.96875 -20.65625 C 8.800781 -20.65625 7.71875 -17.21875 7.71875 -10.34375 C 7.71875 -3.476562 8.800781 -0.046875 10.96875 -0.046875 Z M 10.96875 -0.046875 "/></g></g></g><g fill="#171716" fill-opacity="1"><g transform="translate(146.618058, 42.727489)"><g><path d="M 9.015625 -28.46875 L 9.015625 -2.296875 C 9.015625 -1.796875 9.179688 -1.347656 9.515625 -0.953125 C 9.847656 -0.566406 10.25 -0.332031 10.71875 -0.25 L 10.71875 0 L 1.046875 0 L 1.046875 -0.25 C 1.515625 -0.332031 1.914062 -0.566406 2.25 -0.953125 C 2.582031 -1.347656 2.75 -1.796875 2.75 -2.296875 L 2.75 -25.875 C 2.75 -26.375 2.582031 -26.816406 2.25 -27.203125 C 1.914062 -27.597656 1.515625 -27.835938 1.046875 -27.921875 L 1.046875 -28.171875 L 8.1875 -29.21875 C 8.207031 -29.21875 8.222656 -29.21875 8.234375 -29.21875 C 8.253906 -29.21875 8.28125 -29.21875 8.3125 -29.21875 C 8.78125 -29.21875 9.015625 -28.96875 9.015625 -28.46875 Z M 9.015625 -28.46875 "/></g></g></g><g fill="#171716" fill-opacity="1"><g transform="translate(156.006872, 42.727489)"><g><path d="M 18.609375 -3.125 C 18.609375 -2.625 18.773438 -2.175781 19.109375 -1.78125 C 19.441406 -1.394531 19.847656 -1.160156 20.328125 -1.078125 L 20.328125 -0.828125 L 13.140625 0.203125 C 13.140625 0.203125 13.132812 0.203125 13.125 0.203125 C 13.113281 0.203125 13.09375 0.203125 13.0625 0.203125 C 12.863281 0.203125 12.6875 0.128906 12.53125 -0.015625 C 12.382812 -0.171875 12.3125 -0.347656 12.3125 -0.546875 L 12.3125 -1.578125 C 11.8125 -1.222656 11.132812 -0.835938 10.28125 -0.421875 C 9.4375 -0.00390625 8.429688 0.203125 7.265625 0.203125 C 5.953125 0.203125 4.765625 -0.140625 3.703125 -0.828125 C 2.648438 -1.523438 1.972656 -2.457031 1.671875 -3.625 C 1.335938 -4.820312 1.460938 -5.988281 2.046875 -7.125 C 2.628906 -8.269531 3.488281 -9.191406 4.625 -9.890625 C 5.351562 -10.335938 6.273438 -10.757812 7.390625 -11.15625 C 8.503906 -11.5625 9.671875 -11.96875 10.890625 -12.375 C 12.117188 -12.78125 13.265625 -13.195312 14.328125 -13.625 C 15.398438 -14.050781 16.273438 -14.519531 16.953125 -15.03125 C 17.640625 -15.550781 17.984375 -16.132812 17.984375 -16.78125 C 17.984375 -17.332031 17.738281 -17.882812 17.25 -18.4375 C 16.769531 -19 16.195312 -19.445312 15.53125 -19.78125 C 14.71875 -20.164062 13.820312 -20.425781 12.84375 -20.5625 C 11.875 -20.707031 10.875 -20.695312 9.84375 -20.53125 C 8.257812 -20.3125 7.46875 -19.785156 7.46875 -18.953125 C 7.46875 -18.453125 7.617188 -18.019531 7.921875 -17.65625 C 8.234375 -17.289062 8.535156 -16.90625 8.828125 -16.5 C 9.117188 -16.101562 9.265625 -15.582031 9.265625 -14.9375 C 9.265625 -14.050781 8.941406 -13.296875 8.296875 -12.671875 C 7.660156 -12.046875 6.898438 -11.734375 6.015625 -11.734375 C 5.117188 -11.734375 4.359375 -12.046875 3.734375 -12.671875 C 3.109375 -13.296875 2.796875 -14.050781 2.796875 -14.9375 C 2.796875 -16.019531 3.171875 -16.972656 3.921875 -17.796875 C 4.671875 -18.617188 5.59375 -19.285156 6.6875 -19.796875 C 7.789062 -20.316406 8.832031 -20.644531 9.8125 -20.78125 C 12.03125 -21.113281 13.976562 -20.847656 15.65625 -19.984375 C 16.457031 -19.597656 17.148438 -19.050781 17.734375 -18.34375 C 18.316406 -17.632812 18.609375 -16.765625 18.609375 -15.734375 Z M 12.3125 -1.875 L 12.3125 -12.609375 C 11.757812 -12.359375 11.140625 -12.015625 10.453125 -11.578125 C 9.773438 -11.148438 9.179688 -10.566406 8.671875 -9.828125 C 8.171875 -9.085938 7.878906 -8.132812 7.796875 -6.96875 C 7.742188 -5.96875 7.828125 -5.082031 8.046875 -4.3125 C 8.273438 -3.550781 8.613281 -2.9375 9.0625 -2.46875 C 9.53125 -1.96875 10.078125 -1.660156 10.703125 -1.546875 C 11.328125 -1.429688 11.863281 -1.539062 12.3125 -1.875 Z M 12.3125 -1.875 "/></g></g></g><g fill="#171716" fill-opacity="1"><g transform="translate(174.993135, 42.727489)"><g><path d="M 4.046875 0.203125 C 3.328125 0.203125 2.710938 -0.046875 2.203125 -0.546875 C 1.703125 -1.046875 1.453125 -1.65625 1.453125 -2.375 C 1.453125 -3.101562 1.703125 -3.722656 2.203125 -4.234375 C 2.710938 -4.753906 3.328125 -5.015625 4.046875 -5.015625 C 4.773438 -5.015625 5.394531 -4.753906 5.90625 -4.234375 C 6.414062 -3.722656 6.671875 -3.101562 6.671875 -2.375 C 6.671875 -1.65625 6.414062 -1.046875 5.90625 -0.546875 C 5.394531 -0.046875 4.773438 0.203125 4.046875 0.203125 Z M 4.046875 0.203125 "/></g></g></g><g fill="#171716" fill-opacity="1"><g transform="translate(11.883075, 51.86613)"><g><path d="M 2.578125 0.078125 C 2.128906 0.078125 1.726562 -0.015625 1.375 -0.203125 C 1.019531 -0.398438 0.738281 -0.664062 0.53125 -1 C 0.332031 -1.34375 0.234375 -1.722656 0.234375 -2.140625 C 0.234375 -2.554688 0.332031 -2.929688 0.53125 -3.265625 C 0.738281 -3.609375 1.019531 -3.875 1.375 -4.0625 C 1.726562 -4.25 2.128906 -4.34375 2.578125 -4.34375 C 3.023438 -4.34375 3.425781 -4.25 3.78125 -4.0625 C 4.132812 -3.875 4.410156 -3.609375 4.609375 -3.265625 C 4.816406 -2.929688 4.921875 -2.554688 4.921875 -2.140625 C 4.921875 -1.722656 4.816406 -1.34375 4.609375 -1 C 4.410156 -0.664062 4.132812 -0.398438 3.78125 -0.203125 C 3.425781 -0.015625 3.023438 0.078125 2.578125 0.078125 Z M 2.578125 -0.765625 C 2.828125 -0.765625 3.050781 -0.820312 3.25 -0.9375 C 3.457031 -1.0625 3.617188 -1.222656 3.734375 -1.421875 C 3.859375 -1.628906 3.921875 -1.867188 3.921875 -2.140625 C 3.921875 -2.398438 3.859375 -2.632812 3.734375 -2.84375 C 3.617188 -3.050781 3.457031 -3.210938 3.25 -3.328125 C 3.050781 -3.441406 2.828125 -3.5 2.578125 -3.5 C 2.328125 -3.5 2.097656 -3.441406 1.890625 -3.328125 C 1.691406 -3.210938 1.53125 -3.050781 1.40625 -2.84375 C 1.289062 -2.632812 1.234375 -2.398438 1.234375 -2.140625 C 1.234375 -1.867188 1.289062 -1.628906 1.40625 -1.421875 C 1.53125 -1.222656 1.691406 -1.0625 1.890625 -0.9375 C 2.097656 -0.820312 2.328125 -0.765625 2.578125 -0.765625 Z M 2.578125 -0.765625 "/></g></g></g><g fill="#171716" fill-opacity="1"><g transform="translate(19.375386, 51.86613)"><g><path d="M 2.5625 -1.515625 L 2.5625 0 L 1.5625 0 L 1.5625 -1.53125 L -0.078125 -4.28125 L 0.96875 -4.28125 L 2.109375 -2.375 L 3.25 -4.28125 L 4.21875 -4.28125 Z M 2.5625 -1.515625 "/></g></g></g><g fill="#171716" fill-opacity="1"><g transform="translate(25.841396, 51.86613)"><g><path d="M 3.8125 -0.796875 L 3.8125 0 L 0.5 0 L 0.5 -4.28125 L 3.734375 -4.28125 L 3.734375 -3.484375 L 1.484375 -3.484375 L 1.484375 -2.546875 L 3.46875 -2.546875 L 3.46875 -1.78125 L 1.484375 -1.78125 L 1.484375 -0.796875 Z M 3.8125 -0.796875 "/></g></g></g><g fill="#171716" fill-opacity="1"><g transform="translate(32.276859, 51.86613)"><g><path d="M 4.421875 -4.28125 L 4.421875 0 L 3.609375 0 L 1.484375 -2.59375 L 1.484375 0 L 0.5 0 L 0.5 -4.28125 L 1.328125 -4.28125 L 3.453125 -1.6875 L 3.453125 -4.28125 Z M 4.421875 -4.28125 "/></g></g></g><g fill="#171716" fill-opacity="1"><g transform="translate(39.549252, 51.86613)"><g><path d="M 0.5 -4.28125 L 1.5 -4.28125 L 1.5 0 L 0.5 0 Z M 0.5 -4.28125 "/></g></g></g><g fill="#171716" fill-opacity="1"><g transform="translate(43.889345, 51.86613)"><g><path d="M 2.5625 -1.515625 L 2.5625 0 L 1.5625 0 L 1.5625 -1.53125 L -0.078125 -4.28125 L 0.96875 -4.28125 L 2.109375 -2.375 L 3.25 -4.28125 L 4.21875 -4.28125 Z M 2.5625 -1.515625 "/></g></g></g><g fill="#171716" fill-opacity="1"><g transform="translate(50.355355, 51.86613)"><g><path d="M 0.5 -4.28125 L 1.5 -4.28125 L 1.5 0 L 0.5 0 Z M 0.5 -4.28125 "/></g></g></g></svg>